<mxfile host="Electron" agent="Mozilla/5.0 (Windows NT 10.0; Win64; x64) AppleWebKit/537.36 (KHTML, like Gecko) draw.io/24.7.8 Chrome/128.0.6613.36 Electron/32.0.1 Safari/537.36" version="24.7.8">
  <diagram name="Page-1" id="tM723VLJJcQTk2xpeeF4">
    <mxGraphModel dx="2954" dy="1204" grid="1" gridSize="10" guides="1" tooltips="1" connect="1" arrows="1" fold="1" page="1" pageScale="1" pageWidth="850" pageHeight="1100" math="0" shadow="0">
      <root>
        <mxCell id="0" />
        <mxCell id="1" parent="0" />
        <mxCell id="nxxf1k_60ai-aSQKH444-29" value="" style="edgeStyle=orthogonalEdgeStyle;rounded=0;orthogonalLoop=1;jettySize=auto;html=1;" edge="1" parent="1" source="nxxf1k_60ai-aSQKH444-23" target="nxxf1k_60ai-aSQKH444-25">
          <mxGeometry relative="1" as="geometry" />
        </mxCell>
        <mxCell id="nxxf1k_60ai-aSQKH444-23" value="" style="rounded=0;whiteSpace=wrap;html=1;" vertex="1" parent="1">
          <mxGeometry x="570" y="10" width="440" height="230" as="geometry" />
        </mxCell>
        <mxCell id="nxxf1k_60ai-aSQKH444-21" value="" style="rounded=0;whiteSpace=wrap;html=1;" vertex="1" parent="1">
          <mxGeometry x="30" y="20" width="390" height="170" as="geometry" />
        </mxCell>
        <mxCell id="nxxf1k_60ai-aSQKH444-5" value="Spinning plate Module" style="rounded=0;whiteSpace=wrap;html=1;movable=1;resizable=1;rotatable=1;deletable=1;editable=1;locked=0;connectable=1;" vertex="1" parent="1">
          <mxGeometry x="40" y="30" width="370" height="60" as="geometry" />
        </mxCell>
        <mxCell id="nxxf1k_60ai-aSQKH444-13" value="TOF" style="rounded=0;whiteSpace=wrap;html=1;movable=1;resizable=1;rotatable=1;deletable=1;editable=1;locked=0;connectable=1;" vertex="1" parent="1">
          <mxGeometry x="40" y="100" width="60" height="20" as="geometry" />
        </mxCell>
        <mxCell id="nxxf1k_60ai-aSQKH444-15" value="accelerometer/IMU" style="rounded=0;whiteSpace=wrap;html=1;movable=1;resizable=1;rotatable=1;deletable=1;editable=1;locked=0;connectable=1;" vertex="1" parent="1">
          <mxGeometry x="40" y="130" width="120" height="20" as="geometry" />
        </mxCell>
        <mxCell id="nxxf1k_60ai-aSQKH444-17" value="Leg Motion" style="rounded=0;whiteSpace=wrap;html=1;" vertex="1" parent="1">
          <mxGeometry x="600" y="25" width="330" height="45" as="geometry" />
        </mxCell>
        <mxCell id="nxxf1k_60ai-aSQKH444-18" value="" style="rounded=0;whiteSpace=wrap;html=1;" vertex="1" parent="1">
          <mxGeometry x="590" y="90" width="120" height="40" as="geometry" />
        </mxCell>
        <mxCell id="nxxf1k_60ai-aSQKH444-19" value="" style="rounded=0;whiteSpace=wrap;html=1;" vertex="1" parent="1">
          <mxGeometry x="600" y="100" width="120" height="40" as="geometry" />
        </mxCell>
        <mxCell id="nxxf1k_60ai-aSQKH444-20" value="stepper" style="rounded=0;whiteSpace=wrap;html=1;" vertex="1" parent="1">
          <mxGeometry x="610" y="110" width="120" height="40" as="geometry" />
        </mxCell>
        <mxCell id="nxxf1k_60ai-aSQKH444-22" value="CPU" style="rounded=0;whiteSpace=wrap;html=1;" vertex="1" parent="1">
          <mxGeometry x="40" y="160" width="120" height="20" as="geometry" />
        </mxCell>
        <mxCell id="nxxf1k_60ai-aSQKH444-24" value="ankle spring" style="rounded=0;whiteSpace=wrap;html=1;" vertex="1" parent="1">
          <mxGeometry x="760" y="90" width="160" height="30" as="geometry" />
        </mxCell>
        <mxCell id="nxxf1k_60ai-aSQKH444-25" value="Main board&lt;div&gt;&lt;br&gt;&lt;/div&gt;&lt;div&gt;&lt;br&gt;&lt;/div&gt;" style="rounded=0;whiteSpace=wrap;html=1;verticalAlign=top;" vertex="1" parent="1">
          <mxGeometry x="360" y="275" width="430" height="230" as="geometry" />
        </mxCell>
        <mxCell id="nxxf1k_60ai-aSQKH444-26" value="Main CPU" style="rounded=0;whiteSpace=wrap;html=1;" vertex="1" parent="1">
          <mxGeometry x="380" y="310" width="120" height="20" as="geometry" />
        </mxCell>
        <mxCell id="nxxf1k_60ai-aSQKH444-27" value="camera connection" style="rounded=0;whiteSpace=wrap;html=1;" vertex="1" parent="1">
          <mxGeometry x="380" y="340" width="120" height="20" as="geometry" />
        </mxCell>
        <mxCell id="nxxf1k_60ai-aSQKH444-28" value="PSU" style="rounded=0;whiteSpace=wrap;html=1;" vertex="1" parent="1">
          <mxGeometry x="380" y="370" width="200" height="100" as="geometry" />
        </mxCell>
        <mxCell id="nxxf1k_60ai-aSQKH444-31" style="edgeStyle=orthogonalEdgeStyle;rounded=0;orthogonalLoop=1;jettySize=auto;html=1;exitX=0.5;exitY=1;exitDx=0;exitDy=0;entryX=0;entryY=0.543;entryDx=0;entryDy=0;entryPerimeter=0;" edge="1" parent="1" source="nxxf1k_60ai-aSQKH444-21" target="nxxf1k_60ai-aSQKH444-25">
          <mxGeometry relative="1" as="geometry" />
        </mxCell>
        <mxCell id="nxxf1k_60ai-aSQKH444-32" value="" style="rounded=0;whiteSpace=wrap;html=1;" vertex="1" parent="1">
          <mxGeometry x="410" y="290" width="120" height="60" as="geometry" />
        </mxCell>
        <mxCell id="nxxf1k_60ai-aSQKH444-33" value="" style="rounded=0;whiteSpace=wrap;html=1;" vertex="1" parent="1">
          <mxGeometry x="410" y="290" width="120" height="60" as="geometry" />
        </mxCell>
        <mxCell id="nxxf1k_60ai-aSQKH444-34" value="" style="rounded=0;whiteSpace=wrap;html=1;" vertex="1" parent="1">
          <mxGeometry x="410" y="290" width="120" height="60" as="geometry" />
        </mxCell>
        <mxCell id="nxxf1k_60ai-aSQKH444-35" value="Gear Box" style="rounded=0;whiteSpace=wrap;html=1;verticalAlign=top;" vertex="1" parent="1">
          <mxGeometry x="760" y="130" width="180" height="100" as="geometry" />
        </mxCell>
        <mxCell id="nxxf1k_60ai-aSQKH444-36" value="Planetary gear box" style="rounded=0;whiteSpace=wrap;html=1;" vertex="1" parent="1">
          <mxGeometry x="770" y="155" width="120" height="30" as="geometry" />
        </mxCell>
        <mxCell id="nxxf1k_60ai-aSQKH444-37" value="" style="rounded=0;whiteSpace=wrap;html=1;" vertex="1" parent="1">
          <mxGeometry x="410" y="290" width="120" height="60" as="geometry" />
        </mxCell>
        <mxCell id="nxxf1k_60ai-aSQKH444-38" value="gear shift" style="rounded=0;whiteSpace=wrap;html=1;" vertex="1" parent="1">
          <mxGeometry x="770" y="190" width="70" height="30" as="geometry" />
        </mxCell>
      </root>
    </mxGraphModel>
  </diagram>
</mxfile>
